<svg width="100" height="100" viewBox="0 0 100 100" fill="none" xmlns="http://www.w3.org/2000/svg">
<g clip-path="url(#clip0)">
<rect width="100" height="100" fill="white"/>
<rect width="50" height="50" fill="#8B9DDE"/>
<rect x="50" width="50" height="50" fill="#6DD26B"/>
<rect y="50" width="50" height="50" fill="#D4E13A"/>
<rect x="50" y="50" width="50" height="50" fill="#E5A2A2"/>
<rect x="0.25" y="0.25" width="99.5" height="99.5" stroke="black" stroke-width="0.5"/>
<line x1="25.25" y1="-0.00317383" x2="25.25" y2="99.9968" stroke="black" stroke-width="0.5"/>
<line x1="50.25" y1="-0.00317383" x2="50.25" y2="99.9968" stroke="black" stroke-width="0.5"/>
<line x1="75.25" y1="-0.00317383" x2="75.25" y2="99.9968" stroke="black" stroke-width="0.5"/>
<line y1="74.75" x2="100" y2="74.75" stroke="black" stroke-width="0.5"/>
<line y1="49.75" x2="100" y2="49.75" stroke="black" stroke-width="0.5"/>
<line y1="24.75" x2="100" y2="24.75" stroke="black" stroke-width="0.5"/>
<path d="M13.5352 17V8.46875H13.4473L10.2188 9.71094V10.7012L12.4512 9.85156V17H13.5352Z" fill="black"/>
<path d="M39.4141 14.1348V8.46875H38.2598L34.4395 14.3809V15.0195H38.3301V17H39.4141V15.0195H40.6035V14.1348H39.4141ZM35.6406 14.1348L38.1543 10.2383L38.3301 9.91016V14.1348H35.6406Z" fill="black"/>
<path d="M61.2852 12.2129V13.0918H62.0586C62.3281 13.0918 62.5742 13.123 62.7969 13.1855C63.0234 13.248 63.2168 13.3438 63.377 13.4727C63.5332 13.6016 63.6543 13.7637 63.7402 13.959C63.8301 14.1504 63.875 14.3789 63.875 14.6445C63.875 14.9141 63.8359 15.1484 63.7578 15.3477C63.6836 15.543 63.5762 15.707 63.4355 15.8398C63.2949 15.9727 63.125 16.0723 62.9258 16.1387C62.7266 16.2012 62.5039 16.2324 62.2578 16.2324C62.0117 16.2324 61.7871 16.1973 61.584 16.127C61.3848 16.0566 61.2148 15.957 61.0742 15.8281C60.9336 15.6992 60.8242 15.543 60.7461 15.3594C60.6719 15.1758 60.6348 14.9727 60.6348 14.75H59.5508C59.5508 15.125 59.6211 15.459 59.7617 15.752C59.9062 16.0449 60.0996 16.293 60.3418 16.4961C60.584 16.6992 60.8691 16.8535 61.1973 16.959C61.5293 17.0645 61.8828 17.1172 62.2578 17.1172C62.6406 17.1172 62.9961 17.0625 63.3242 16.9531C63.6562 16.8398 63.9434 16.6758 64.1855 16.4609C64.4277 16.25 64.6172 15.9902 64.7539 15.6816C64.8906 15.373 64.959 15.0195 64.959 14.6211C64.959 14.4258 64.9355 14.2285 64.8887 14.0293C64.8457 13.8301 64.7695 13.6406 64.6602 13.4609C64.5469 13.2812 64.3965 13.1191 64.209 12.9746C64.0254 12.8301 63.7949 12.7129 63.5176 12.623C63.748 12.5254 63.9453 12.4043 64.1094 12.2598C64.2773 12.1113 64.4141 11.9531 64.5195 11.7852C64.625 11.6211 64.7031 11.4512 64.7539 11.2754C64.8047 11.0996 64.8301 10.9297 64.8301 10.7656C64.8301 10.3711 64.7676 10.0234 64.6426 9.72266C64.5176 9.42188 64.3418 9.16992 64.1152 8.9668C63.8887 8.76367 63.6172 8.61133 63.3008 8.50977C62.9844 8.4043 62.6348 8.35156 62.252 8.35156C61.8574 8.35156 61.498 8.41406 61.1738 8.53906C60.8535 8.66016 60.5781 8.82617 60.3477 9.03711C60.1172 9.25195 59.9375 9.50391 59.8086 9.79297C59.6836 10.0781 59.6211 10.3828 59.6211 10.707H60.7109C60.7109 10.4844 60.748 10.2832 60.8223 10.1035C60.8965 9.92383 61.002 9.76953 61.1387 9.64062C61.2715 9.51172 61.4316 9.41406 61.6191 9.34766C61.8105 9.27734 62.0215 9.24219 62.252 9.24219C62.4902 9.24219 62.7012 9.27344 62.8848 9.33594C63.0723 9.39453 63.2285 9.48438 63.3535 9.60547C63.4824 9.73047 63.5801 9.88867 63.6465 10.0801C63.7129 10.2676 63.7461 10.4883 63.7461 10.7422C63.7461 10.957 63.709 11.1543 63.6348 11.334C63.5605 11.5137 63.4531 11.668 63.3125 11.7969C63.168 11.9258 62.9902 12.0273 62.7793 12.1016C62.5723 12.1758 62.332 12.2129 62.0586 12.2129H61.2852Z" fill="black"/>
<path d="M85.1855 16.0391H85.0742V17.0059H85.1855C85.8887 17.0059 86.4844 16.9102 86.9727 16.7188C87.4648 16.5234 87.8496 16.2695 88.127 15.957C88.5879 15.4414 88.8887 14.8516 89.0293 14.1875C89.1699 13.5195 89.2402 12.8555 89.2402 12.1953V11.8027C89.2402 11.3379 89.1758 10.873 89.0469 10.4082C88.918 9.93945 88.7246 9.54883 88.4668 9.23633C88.248 8.9707 87.9766 8.75781 87.6523 8.59766C87.332 8.43359 86.9531 8.35156 86.5156 8.35156C86.0781 8.35156 85.6934 8.43164 85.3613 8.5918C85.0332 8.74805 84.7598 8.95898 84.541 9.22461C84.3184 9.49414 84.1504 9.80859 84.0371 10.168C83.9277 10.5234 83.873 10.9023 83.873 11.3047C83.873 11.6484 83.9199 11.9902 84.0137 12.3301C84.1074 12.6699 84.2539 12.9746 84.4531 13.2441C84.6523 13.5137 84.9043 13.7324 85.209 13.9004C85.5176 14.0645 85.8828 14.1465 86.3047 14.1465C86.5234 14.1465 86.7246 14.125 86.9082 14.082C87.0957 14.0352 87.2656 13.9727 87.418 13.8945C87.5703 13.8164 87.707 13.7266 87.8281 13.625C87.9492 13.5195 88.0566 13.4082 88.1504 13.291V13.3027C88.1309 13.6621 88.0742 14.0098 87.9805 14.3457C87.8867 14.6816 87.7051 14.9961 87.4355 15.2891C87.2129 15.5273 86.918 15.7129 86.5508 15.8457C86.1875 15.9746 85.7324 16.0391 85.1855 16.0391ZM86.4805 13.25C86.2188 13.25 85.9902 13.1934 85.7949 13.0801C85.6035 12.9629 85.4453 12.8105 85.3203 12.623C85.1914 12.4355 85.0957 12.2227 85.0332 11.9844C84.9707 11.7422 84.9395 11.4961 84.9395 11.2461C84.9395 10.9648 84.9746 10.7031 85.0449 10.4609C85.1152 10.2148 85.2188 10.002 85.3555 9.82227C85.4883 9.64648 85.6523 9.50781 85.8477 9.40625C86.043 9.30469 86.2676 9.25391 86.5215 9.25391C86.7441 9.25391 86.9531 9.30859 87.1484 9.41797C87.3477 9.52734 87.5234 9.68359 87.6758 9.88672C87.8242 10.0938 87.9414 10.3457 88.0273 10.6426C88.1172 10.9395 88.1621 11.2773 88.1621 11.6562V12.0078C88.0957 12.1914 88.0039 12.3594 87.8867 12.5117C87.7734 12.6602 87.6445 12.7891 87.5 12.8984C87.3516 13.0117 87.1895 13.0996 87.0137 13.1621C86.8418 13.2207 86.6641 13.25 86.4805 13.25Z" fill="black"/>
<path d="M16.0156 33.4629H15.9219C15.3125 33.4629 14.7676 33.5488 14.2871 33.7207C13.8066 33.8887 13.3984 34.1406 13.0625 34.4766C12.5742 34.9648 12.2461 35.5527 12.0781 36.2402C11.9102 36.9277 11.8262 37.627 11.8262 38.3379V38.8477C11.8262 39.2617 11.8887 39.6758 12.0137 40.0898C12.1387 40.5 12.3281 40.8594 12.582 41.168C12.8086 41.4492 13.0879 41.6777 13.4199 41.8535C13.752 42.0293 14.1367 42.1172 14.5742 42.1172C15.0078 42.1172 15.3887 42.041 15.7168 41.8887C16.0488 41.7363 16.3262 41.5273 16.5488 41.2617C16.7715 41 16.9375 40.6934 17.0469 40.3418C17.1602 39.9902 17.2168 39.6152 17.2168 39.2168C17.2168 38.8691 17.1699 38.5273 17.0762 38.1914C16.9824 37.8555 16.8359 37.5547 16.6367 37.2891C16.4375 37.0234 16.1836 36.8105 15.875 36.6504C15.5664 36.4863 15.1992 36.4043 14.7734 36.4043C14.5781 36.4043 14.3906 36.4277 14.2109 36.4746C14.0352 36.5176 13.8711 36.5762 13.7188 36.6504C13.5625 36.7285 13.418 36.8203 13.2852 36.9258C13.1523 37.0273 13.0352 37.1387 12.9336 37.2598C12.957 36.8848 13.0312 36.5195 13.1562 36.1641C13.2852 35.8086 13.4727 35.502 13.7188 35.2441C13.9531 34.998 14.25 34.8027 14.6094 34.6582C14.9688 34.5098 15.4062 34.4355 15.9219 34.4355H16.0156V33.4629ZM14.5977 37.3066C14.8594 37.3066 15.0879 37.3613 15.2832 37.4707C15.4785 37.5801 15.6406 37.7266 15.7695 37.9102C15.8984 38.0938 15.9941 38.3047 16.0566 38.543C16.1191 38.7773 16.1504 39.0195 16.1504 39.2695C16.1504 39.5508 16.1152 39.8125 16.0449 40.0547C15.9785 40.293 15.8789 40.498 15.7461 40.6699C15.6094 40.8418 15.4434 40.9766 15.248 41.0742C15.0527 41.1719 14.8281 41.2207 14.5742 41.2207C14.3555 41.2207 14.1465 41.1699 13.9473 41.0684C13.748 40.9629 13.5723 40.8105 13.4199 40.6113C13.2676 40.4121 13.1465 40.168 13.0566 39.8789C12.9668 39.5859 12.9219 39.252 12.9219 38.877V38.5137C12.9883 38.334 13.0781 38.1699 13.1914 38.0215C13.3047 37.873 13.4355 37.7461 13.584 37.6406C13.7324 37.5352 13.8926 37.4531 14.0645 37.3945C14.2363 37.3359 14.4141 37.3066 14.5977 37.3066Z" fill="black"/>
<path d="M40.252 42V41.1152H35.9688L38.2598 38.6309C38.4746 38.3965 38.6777 38.1621 38.8691 37.9277C39.0645 37.6895 39.2363 37.4492 39.3848 37.207C39.5293 36.9648 39.6445 36.7207 39.7305 36.4746C39.8164 36.2246 39.8594 35.9727 39.8594 35.7188C39.8594 35.3789 39.7988 35.0645 39.6777 34.7754C39.5605 34.4863 39.3906 34.2363 39.168 34.0254C38.9453 33.8145 38.6719 33.6504 38.3477 33.5332C38.0273 33.4121 37.666 33.3516 37.2637 33.3516C36.8262 33.3516 36.4355 33.4219 36.0918 33.5625C35.752 33.7031 35.4648 33.8926 35.2305 34.1309C34.9922 34.3691 34.8105 34.6484 34.6855 34.9688C34.5605 35.2852 34.498 35.623 34.498 35.9824H35.5879C35.5879 35.7168 35.6211 35.4766 35.6875 35.2617C35.7578 35.0469 35.8633 34.8633 36.0039 34.7109C36.1406 34.5625 36.3125 34.4473 36.5195 34.3652C36.7305 34.2832 36.9785 34.2422 37.2637 34.2422C37.498 34.2422 37.707 34.2832 37.8906 34.3652C38.0781 34.4434 38.2383 34.5508 38.3711 34.6875C38.5 34.8242 38.5977 34.9863 38.6641 35.1738C38.7344 35.3574 38.7695 35.5547 38.7695 35.7656C38.7695 35.9375 38.748 36.1055 38.7051 36.2695C38.6621 36.4297 38.5898 36.5996 38.4883 36.7793C38.3867 36.9629 38.252 37.1621 38.084 37.377C37.916 37.5918 37.707 37.8379 37.457 38.1152L34.6621 41.2207V42H40.252Z" fill="black"/>
<path d="M66.252 42V41.1152H61.9688L64.2598 38.6309C64.4746 38.3965 64.6777 38.1621 64.8691 37.9277C65.0645 37.6895 65.2363 37.4492 65.3848 37.207C65.5293 36.9648 65.6445 36.7207 65.7305 36.4746C65.8164 36.2246 65.8594 35.9727 65.8594 35.7188C65.8594 35.3789 65.7988 35.0645 65.6777 34.7754C65.5605 34.4863 65.3906 34.2363 65.168 34.0254C64.9453 33.8145 64.6719 33.6504 64.3477 33.5332C64.0273 33.4121 63.666 33.3516 63.2637 33.3516C62.8262 33.3516 62.4355 33.4219 62.0918 33.5625C61.752 33.7031 61.4648 33.8926 61.2305 34.1309C60.9922 34.3691 60.8105 34.6484 60.6855 34.9688C60.5605 35.2852 60.498 35.623 60.498 35.9824H61.5879C61.5879 35.7168 61.6211 35.4766 61.6875 35.2617C61.7578 35.0469 61.8633 34.8633 62.0039 34.7109C62.1406 34.5625 62.3125 34.4473 62.5195 34.3652C62.7305 34.2832 62.9785 34.2422 63.2637 34.2422C63.498 34.2422 63.707 34.2832 63.8906 34.3652C64.0781 34.4434 64.2383 34.5508 64.3711 34.6875C64.5 34.8242 64.5977 34.9863 64.6641 35.1738C64.7344 35.3574 64.7695 35.5547 64.7695 35.7656C64.7695 35.9375 64.748 36.1055 64.7051 36.2695C64.6621 36.4297 64.5898 36.5996 64.4883 36.7793C64.3867 36.9629 64.252 37.1621 64.084 37.377C63.916 37.5918 63.707 37.8379 63.457 38.1152L60.6621 41.2207V42H66.252Z" fill="black"/>
<path d="M89.4141 39.1348V33.4688H88.2598L84.4395 39.3809V40.0195H88.3301V42H89.4141V40.0195H90.6035V39.1348H89.4141ZM85.6406 39.1348L88.1543 35.2383L88.3301 34.9102V39.1348H85.6406Z" fill="black"/>
<path d="M12.4062 62.7227L13.2734 62.9453C13.3711 62.8594 13.4648 62.7832 13.5547 62.7168C13.6484 62.6504 13.748 62.5938 13.8535 62.5469C13.959 62.5 14.0762 62.4648 14.2051 62.4414C14.3379 62.4141 14.4941 62.4004 14.6738 62.4004C14.9473 62.4004 15.1895 62.4492 15.4004 62.5469C15.6113 62.6445 15.7891 62.7773 15.9336 62.9453C16.0781 63.1172 16.1875 63.3184 16.2617 63.5488C16.3398 63.7793 16.3789 64.0273 16.3789 64.293C16.3789 64.5859 16.3438 64.8516 16.2734 65.0898C16.207 65.3281 16.1074 65.5312 15.9746 65.6992C15.8379 65.8711 15.6699 66.0039 15.4707 66.0977C15.2715 66.1875 15.043 66.2324 14.7852 66.2324C14.3281 66.2324 13.9531 66.1074 13.6602 65.8574C13.3711 65.6074 13.1934 65.2402 13.127 64.7559H12.0957C12.1348 65.1504 12.2305 65.4961 12.3828 65.793C12.5391 66.0898 12.7383 66.3359 12.9805 66.5312C13.2188 66.7266 13.4922 66.873 13.8008 66.9707C14.1094 67.0684 14.4375 67.1172 14.7852 67.1172C15.2383 67.1172 15.6328 67.0469 15.9688 66.9062C16.3047 66.7617 16.584 66.5625 16.8066 66.3086C17.0254 66.0586 17.1895 65.7598 17.2988 65.4121C17.4082 65.0645 17.4629 64.6875 17.4629 64.2812C17.4629 63.8516 17.4043 63.4609 17.2871 63.1094C17.1699 62.7578 17.002 62.457 16.7832 62.207C16.5645 61.9609 16.2988 61.7695 15.9863 61.6328C15.6738 61.4961 15.3203 61.4277 14.9258 61.4277C14.6172 61.4277 14.3457 61.4648 14.1113 61.5391C13.877 61.6133 13.6758 61.6992 13.5078 61.7969L13.748 59.5234H17.2109V58.4688H12.834L12.4062 62.7227Z" fill="black"/>
<path d="M65.2695 60.6953C65.2695 60.3242 65.2051 59.9941 65.0762 59.7051C64.9473 59.4121 64.7695 59.166 64.543 58.9668C64.3164 58.7676 64.0488 58.6152 63.7402 58.5098C63.4316 58.4043 63.0977 58.3516 62.7383 58.3516C62.375 58.3516 62.0391 58.4043 61.7305 58.5098C61.4258 58.6152 61.1641 58.7676 60.9453 58.9668C60.7227 59.166 60.5488 59.4121 60.4238 59.7051C60.2988 59.9941 60.2363 60.3242 60.2363 60.6953C60.2363 60.9062 60.2656 61.1074 60.3242 61.2988C60.3828 61.4902 60.4648 61.666 60.5703 61.8262C60.6758 61.9902 60.8047 62.1387 60.957 62.2715C61.1094 62.4004 61.2793 62.5117 61.4668 62.6055C61.248 62.6992 61.0508 62.8164 60.875 62.957C60.6992 63.0977 60.5488 63.2559 60.4238 63.4316C60.2988 63.6113 60.2031 63.8086 60.1367 64.0234C60.0703 64.2344 60.0371 64.459 60.0371 64.6973C60.0371 65.0879 60.1074 65.4336 60.248 65.7344C60.3887 66.0352 60.582 66.2871 60.8281 66.4902C61.0703 66.6973 61.3555 66.8535 61.6836 66.959C62.0156 67.0645 62.373 67.1172 62.7559 67.1172C63.1309 67.1172 63.4824 67.0645 63.8105 66.959C64.1387 66.8496 64.4258 66.6914 64.6719 66.4844C64.9141 66.2812 65.1055 66.0293 65.2461 65.7285C65.3906 65.4277 65.4629 65.084 65.4629 64.6973C65.4629 64.459 65.4277 64.2344 65.3574 64.0234C65.291 63.8125 65.1953 63.6172 65.0703 63.4375C64.9414 63.2578 64.7871 63.0996 64.6074 62.9629C64.4316 62.8223 64.2344 62.7051 64.0156 62.6113C64.1406 62.5488 64.2578 62.4785 64.3672 62.4004C64.4766 62.3223 64.5762 62.2383 64.666 62.1484C64.8535 61.9609 65 61.7441 65.1055 61.498C65.2109 61.248 65.2656 60.9805 65.2695 60.6953ZM64.3789 64.6738C64.3789 64.9199 64.3379 65.1406 64.2559 65.3359C64.1777 65.5273 64.0684 65.6895 63.9277 65.8223C63.7832 65.9551 63.6113 66.0566 63.4121 66.127C63.2129 66.1973 62.9941 66.2324 62.7559 66.2324C62.5059 66.2324 62.2793 66.1973 62.0762 66.127C61.877 66.0566 61.707 65.9551 61.5664 65.8223C61.4258 65.6895 61.3164 65.5273 61.2383 65.3359C61.1641 65.1406 61.127 64.9199 61.127 64.6738C61.127 64.4355 61.1641 64.2168 61.2383 64.0176C61.3164 63.8184 61.4258 63.6465 61.5664 63.502C61.707 63.3613 61.877 63.252 62.0762 63.1738C62.2754 63.0957 62.498 63.0566 62.7441 63.0566C62.9824 63.0566 63.2012 63.0957 63.4004 63.1738C63.6035 63.252 63.7773 63.3613 63.9219 63.502C64.0664 63.6465 64.1777 63.8184 64.2559 64.0176C64.3379 64.2168 64.3789 64.4355 64.3789 64.6738ZM64.1797 60.7129C64.1797 60.9316 64.1445 61.1309 64.0742 61.3105C64.0039 61.4902 63.9062 61.6426 63.7812 61.7676C63.6523 61.8965 63.5 61.9961 63.3242 62.0664C63.1484 62.1328 62.957 62.166 62.75 62.166C62.5391 62.166 62.3457 62.1328 62.1699 62.0664C61.998 61.9961 61.8496 61.8965 61.7246 61.7676C61.5957 61.6426 61.4961 61.4922 61.4258 61.3164C61.3594 61.1367 61.3262 60.9355 61.3262 60.7129C61.3262 60.4902 61.3594 60.2891 61.4258 60.1094C61.4961 59.9258 61.5938 59.7695 61.7188 59.6406C61.8438 59.5117 61.9922 59.4141 62.1641 59.3477C62.3359 59.2773 62.5273 59.2422 62.7383 59.2422C62.9492 59.2422 63.1426 59.2793 63.3184 59.3535C63.4941 59.4238 63.6465 59.5234 63.7754 59.6523C63.9004 59.7852 63.998 59.9414 64.0684 60.1211C64.1426 60.3008 64.1797 60.498 64.1797 60.7129Z" fill="black"/>
<path d="M89.0156 58.4629H88.9219C88.3125 58.4629 87.7676 58.5488 87.2871 58.7207C86.8066 58.8887 86.3984 59.1406 86.0625 59.4766C85.5742 59.9648 85.2461 60.5527 85.0781 61.2402C84.9102 61.9277 84.8262 62.627 84.8262 63.3379V63.8477C84.8262 64.2617 84.8887 64.6758 85.0137 65.0898C85.1387 65.5 85.3281 65.8594 85.582 66.168C85.8086 66.4492 86.0879 66.6777 86.4199 66.8535C86.752 67.0293 87.1367 67.1172 87.5742 67.1172C88.0078 67.1172 88.3887 67.041 88.7168 66.8887C89.0488 66.7363 89.3262 66.5273 89.5488 66.2617C89.7715 66 89.9375 65.6934 90.0469 65.3418C90.1602 64.9902 90.2168 64.6152 90.2168 64.2168C90.2168 63.8691 90.1699 63.5273 90.0762 63.1914C89.9824 62.8555 89.8359 62.5547 89.6367 62.2891C89.4375 62.0234 89.1836 61.8105 88.875 61.6504C88.5664 61.4863 88.1992 61.4043 87.7734 61.4043C87.5781 61.4043 87.3906 61.4277 87.2109 61.4746C87.0352 61.5176 86.8711 61.5762 86.7188 61.6504C86.5625 61.7285 86.418 61.8203 86.2852 61.9258C86.1523 62.0273 86.0352 62.1387 85.9336 62.2598C85.957 61.8848 86.0312 61.5195 86.1562 61.1641C86.2852 60.8086 86.4727 60.502 86.7188 60.2441C86.9531 59.998 87.25 59.8027 87.6094 59.6582C87.9688 59.5098 88.4062 59.4355 88.9219 59.4355H89.0156V58.4629ZM87.5977 62.3066C87.8594 62.3066 88.0879 62.3613 88.2832 62.4707C88.4785 62.5801 88.6406 62.7266 88.7695 62.9102C88.8984 63.0938 88.9941 63.3047 89.0566 63.543C89.1191 63.7773 89.1504 64.0195 89.1504 64.2695C89.1504 64.5508 89.1152 64.8125 89.0449 65.0547C88.9785 65.293 88.8789 65.498 88.7461 65.6699C88.6094 65.8418 88.4434 65.9766 88.248 66.0742C88.0527 66.1719 87.8281 66.2207 87.5742 66.2207C87.3555 66.2207 87.1465 66.1699 86.9473 66.0684C86.748 65.9629 86.5723 65.8105 86.4199 65.6113C86.2676 65.4121 86.1465 65.168 86.0566 64.8789C85.9668 64.5859 85.9219 64.252 85.9219 63.877V63.5137C85.9883 63.334 86.0781 63.1699 86.1914 63.0215C86.3047 62.873 86.4355 62.7461 86.584 62.6406C86.7324 62.5352 86.8926 62.4531 87.0645 62.3945C87.2363 62.3359 87.4141 62.3066 87.5977 62.3066Z" fill="black"/>
<path d="M40.4219 59.0781V58.4688H34.6562V59.418H39.2734L35.752 67H36.8887L40.4219 59.0781Z" fill="black"/>
<path d="M14.5352 92V83.4688H14.4473L11.2188 84.7109V85.7012L13.4512 84.8516V92H14.5352Z" fill="black"/>
<path d="M36.2852 87.2129V88.0918H37.0586C37.3281 88.0918 37.5742 88.123 37.7969 88.1855C38.0234 88.248 38.2168 88.3438 38.377 88.4727C38.5332 88.6016 38.6543 88.7637 38.7402 88.959C38.8301 89.1504 38.875 89.3789 38.875 89.6445C38.875 89.9141 38.8359 90.1484 38.7578 90.3477C38.6836 90.543 38.5762 90.707 38.4355 90.8398C38.2949 90.9727 38.125 91.0723 37.9258 91.1387C37.7266 91.2012 37.5039 91.2324 37.2578 91.2324C37.0117 91.2324 36.7871 91.1973 36.584 91.127C36.3848 91.0566 36.2148 90.957 36.0742 90.8281C35.9336 90.6992 35.8242 90.543 35.7461 90.3594C35.6719 90.1758 35.6348 89.9727 35.6348 89.75H34.5508C34.5508 90.125 34.6211 90.459 34.7617 90.752C34.9062 91.0449 35.0996 91.293 35.3418 91.4961C35.584 91.6992 35.8691 91.8535 36.1973 91.959C36.5293 92.0645 36.8828 92.1172 37.2578 92.1172C37.6406 92.1172 37.9961 92.0625 38.3242 91.9531C38.6562 91.8398 38.9434 91.6758 39.1855 91.4609C39.4277 91.25 39.6172 90.9902 39.7539 90.6816C39.8906 90.373 39.959 90.0195 39.959 89.6211C39.959 89.4258 39.9355 89.2285 39.8887 89.0293C39.8457 88.8301 39.7695 88.6406 39.6602 88.4609C39.5469 88.2812 39.3965 88.1191 39.209 87.9746C39.0254 87.8301 38.7949 87.7129 38.5176 87.623C38.748 87.5254 38.9453 87.4043 39.1094 87.2598C39.2773 87.1113 39.4141 86.9531 39.5195 86.7852C39.625 86.6211 39.7031 86.4512 39.7539 86.2754C39.8047 86.0996 39.8301 85.9297 39.8301 85.7656C39.8301 85.3711 39.7676 85.0234 39.6426 84.7227C39.5176 84.4219 39.3418 84.1699 39.1152 83.9668C38.8887 83.7637 38.6172 83.6113 38.3008 83.5098C37.9844 83.4043 37.6348 83.3516 37.252 83.3516C36.8574 83.3516 36.498 83.4141 36.1738 83.5391C35.8535 83.6602 35.5781 83.8262 35.3477 84.0371C35.1172 84.252 34.9375 84.5039 34.8086 84.793C34.6836 85.0781 34.6211 85.3828 34.6211 85.707H35.7109C35.7109 85.4844 35.748 85.2832 35.8223 85.1035C35.8965 84.9238 36.002 84.7695 36.1387 84.6406C36.2715 84.5117 36.4316 84.4141 36.6191 84.3477C36.8105 84.2773 37.0215 84.2422 37.252 84.2422C37.4902 84.2422 37.7012 84.2734 37.8848 84.3359C38.0723 84.3945 38.2285 84.4844 38.3535 84.6055C38.4824 84.7305 38.5801 84.8887 38.6465 85.0801C38.7129 85.2676 38.7461 85.4883 38.7461 85.7422C38.7461 85.957 38.709 86.1543 38.6348 86.334C38.5605 86.5137 38.4531 86.668 38.3125 86.7969C38.168 86.9258 37.9902 87.0273 37.7793 87.1016C37.5723 87.1758 37.332 87.2129 37.0586 87.2129H36.2852Z" fill="black"/>
<path d="M65.252 92V91.1152H60.9688L63.2598 88.6309C63.4746 88.3965 63.6777 88.1621 63.8691 87.9277C64.0645 87.6895 64.2363 87.4492 64.3848 87.207C64.5293 86.9648 64.6445 86.7207 64.7305 86.4746C64.8164 86.2246 64.8594 85.9727 64.8594 85.7188C64.8594 85.3789 64.7988 85.0645 64.6777 84.7754C64.5605 84.4863 64.3906 84.2363 64.168 84.0254C63.9453 83.8145 63.6719 83.6504 63.3477 83.5332C63.0273 83.4121 62.666 83.3516 62.2637 83.3516C61.8262 83.3516 61.4355 83.4219 61.0918 83.5625C60.752 83.7031 60.4648 83.8926 60.2305 84.1309C59.9922 84.3691 59.8105 84.6484 59.6855 84.9688C59.5605 85.2852 59.498 85.623 59.498 85.9824H60.5879C60.5879 85.7168 60.6211 85.4766 60.6875 85.2617C60.7578 85.0469 60.8633 84.8633 61.0039 84.7109C61.1406 84.5625 61.3125 84.4473 61.5195 84.3652C61.7305 84.2832 61.9785 84.2422 62.2637 84.2422C62.498 84.2422 62.707 84.2832 62.8906 84.3652C63.0781 84.4434 63.2383 84.5508 63.3711 84.6875C63.5 84.8242 63.5977 84.9863 63.6641 85.1738C63.7344 85.3574 63.7695 85.5547 63.7695 85.7656C63.7695 85.9375 63.748 86.1055 63.7051 86.2695C63.6621 86.4297 63.5898 86.5996 63.4883 86.7793C63.3867 86.9629 63.252 87.1621 63.084 87.377C62.916 87.5918 62.707 87.8379 62.457 88.1152L59.6621 91.2207V92H65.252Z" fill="black"/>
<path d="M88.4141 89.1348V83.4688H87.2598L83.4395 89.3809V90.0195H87.3301V92H88.4141V90.0195H89.6035V89.1348H88.4141ZM84.6406 89.1348L87.1543 85.2383L87.3301 84.9102V89.1348H84.6406Z" fill="black"/>
</g>
<defs>
<clipPath id="clip0">
<rect width="100" height="100" fill="white"/>
</clipPath>
</defs>
</svg>
